# xmcd CD database file
#
# Track frame offsets:
#	150
#	20967
#	36729
#	53245
#	67447
#	84354
#	95422
#	112620
#	134390
#	166301
#	182191
#	196789
#	213235
#	234740
#	249448
#	269875
#	279721
#	300802
#	319888
#	333736
#
# Disc length: 4776 seconds
#
# Revision: 0
# Processed by: cddbd v1.5.2PL0 Copyright (c) Steve Scherf et al.
# Submitted via: CDex 1.51
#
DISCID=3112a614
DTITLE=Compilation - Summer Jazz
DYEAR=2014
DGENRE=Jazz
TTITLE0=Don Wilkerson - Camp Meeting
TTITLE1=Raphael Gualazzi - Un mare in luce
TTITLE2=Brandford Marsalis Quartet - Mo' better blues
TTITLE3=The Andrews Sisters - Rum and Coca Cola
TTITLE4=Caravan Palace - Jolie coquine
TTITLE5=Claude Nougaro - Le jazz et la java
TTITLE6=Count Basie - April in Paris
TTITLE7=Marlena Shaw - Feel like making love
TTITLE8=Herbie Hancock - Watermelon Man
TTITLE9=Melody Gardot - Baby I'm a fool
TTITLE10=Mel Tormé - Round midnight
TTITLE11=Alex Gopher - The child
TTITLE12=Stan Getz and Charlie Byrd - Samba triste
TTITLE13=Norah Jones - Come away with me
TTITLE14=Bernard Herrmann - I still can't sleep
TTITLE15=Serge Gainsbourg - Du jazz dans le ravin
TTITLE16=Diana Krall - The look of love
TTITLE17=Duke Ellington and John Coltrane - In a sentimental mood
TTITLE18=Chet Baker - The more I see you
TTITLE19=Agnes Obel - Fuel to fire
EXTD=YEAR: 2014
EXTT0=
EXTT1=
EXTT2=
EXTT3=
EXTT4=
EXTT5=
EXTT6=
EXTT7=
EXTT8=
EXTT9=
EXTT10=
EXTT11=
EXTT12=
EXTT13=
EXTT14=
EXTT15=
EXTT16=
EXTT17=
EXTT18=
EXTT19=
PLAYORDER=
